<svg width="67" height="49" viewBox="0 0 67 49" fill="none" xmlns="http://www.w3.org/2000/svg">
<path d="M67 6.00647V26.2881C67 26.2881 62.6592 27.1432 61.765 27.2557C60.8736 27.3679 58.0723 28.2724 56.0421 26.3211C52.9113 23.3204 41.7874 12.2579 41.7874 12.2579C41.7874 12.2579 39.8694 10.3759 36.7898 12.0024C33.9629 13.4924 29.7723 15.676 28.0219 16.5263C24.7131 18.2875 21.9706 15.4933 21.9706 13.3648C21.9706 11.7138 23.0008 10.5933 24.4735 9.76917C28.4647 7.34965 36.8769 2.62782 40.3806 0.766208C42.5103 -0.366496 44.0447 -0.463558 46.9686 1.99962C50.5696 5.02814 53.7743 7.78873 53.7743 7.78873C53.7743 7.78873 54.8195 8.66107 56.4865 8.30973C60.5799 7.44428 67 6.00647 67 6.00647ZM22.7241 40.3716C23.2628 38.9876 23.0827 37.4396 22.0499 36.3776C21.1219 35.4277 19.767 35.1773 18.475 35.4734C18.8364 34.192 18.6368 32.8281 17.7038 31.8656C16.7729 30.9181 15.4205 30.6628 14.1287 30.9615C14.4874 29.682 14.2884 28.3183 13.3548 27.3586C11.8929 25.8591 9.36431 25.9235 7.70317 27.5069C6.05082 29.0925 4.99233 31.9651 6.46705 33.656C7.93934 35.3384 9.63102 34.3147 10.9207 34.0209C10.5619 35.3004 9.48692 36.4905 10.8108 38.1653C12.1334 39.8409 13.9746 38.8243 15.2656 38.5331C14.9056 39.8078 13.8775 41.1175 15.1506 42.6703C16.4351 44.2279 18.539 43.398 19.9285 42.9664C19.3922 44.3451 18.2444 45.8313 19.7191 47.4968C21.1915 49.1743 24.5942 48.3982 26.2563 46.8123C27.9139 45.2268 28.073 42.7138 26.6151 41.2096C25.6085 40.1777 24.108 39.9376 22.7241 40.3716ZM53.0517 29.82C41.0366 17.8048 46.688 23.4585 40.222 16.9787C40.222 16.9787 38.2787 15.044 35.7176 16.1678C33.9196 16.9557 31.6049 18.0294 29.8632 18.8492C27.9492 19.8528 26.5718 20.1634 25.9251 20.1591C22.2251 20.1349 19.2233 17.161 19.2233 13.4647C19.2233 11.0668 20.4963 8.97916 22.3949 7.79414C25.0648 5.94658 31.2103 2.67784 31.2103 2.67784C31.2103 2.67784 29.3381 0.305502 25.2369 0.305502C21.1369 0.305502 12.5709 5.91725 12.5709 5.91725C12.5709 5.91725 10.1408 7.47375 6.67672 6.07176L0 3.74674V26.9547C0 26.9547 1.9065 27.5065 3.61954 28.2062C4.00644 27.1028 4.63072 26.084 5.4967 25.2424C8.33867 22.5355 13.0493 22.5074 15.6349 25.1698C16.4139 25.9792 16.9574 26.9447 17.2348 28.0119C18.2767 28.3335 19.2204 28.9032 19.9788 29.6846C20.76 30.4885 21.3016 31.4594 21.5813 32.5213C22.6219 32.8431 23.5643 33.415 24.3252 34.1969C25.1821 35.0806 25.753 36.148 26.0196 37.3045C27.1074 37.6213 28.0905 38.2109 28.8823 39.0203C30.4362 40.6165 30.9877 42.782 30.6536 44.8708C30.6563 44.8708 30.6614 44.8708 30.6638 44.8756C30.6893 44.9088 31.6266 45.9538 32.2112 46.5432C33.3567 47.6898 35.2272 47.6898 36.3763 46.5432C37.5178 45.397 37.5228 43.5301 36.3763 42.378C36.3352 42.3371 32.2435 38.0572 32.5728 37.7253C32.8996 37.3957 38.1127 42.8201 38.2098 42.9193C39.3539 44.0636 41.2232 44.0636 42.3724 42.9193C43.5189 41.7731 43.5164 39.9062 42.3724 38.7569C42.3161 38.7033 42.0815 38.4785 41.9944 38.389C41.9944 38.389 36.8258 33.7847 37.2192 33.3913C37.6174 32.9955 44.0376 38.9868 44.048 38.9868C45.202 40.0261 46.9797 40.0184 48.09 38.9076C49.1702 37.8275 49.1933 36.1189 48.2357 34.9675C48.2154 34.9063 43.3429 29.8142 43.7231 29.4311C44.1089 29.043 48.9303 34.0075 48.9404 34.0177C50.0819 35.1618 51.9538 35.1618 53.103 34.0177C54.247 32.8736 54.247 31.0044 53.103 29.85C53.0874 29.8403 53.067 29.83 53.0517 29.82Z" fill="#444444"/>
</svg>
