<svg width="73" height="73" viewBox="0 0 73 73" fill="none" xmlns="http://www.w3.org/2000/svg">
<path d="M48.6667 18.25C48.6667 24.9695 43.2195 30.4167 36.5 30.4167C29.7805 30.4167 24.3333 24.9695 24.3333 18.25C24.3333 11.5305 29.7805 6.08334 36.5 6.08334C43.2195 6.08334 48.6667 11.5305 48.6667 18.25Z" fill="#444444"/>
<path d="M47.6879 41.071C46.2489 41.0884 44.9077 41.1409 43.7389 41.298C41.7835 41.5609 39.6431 42.1893 37.8746 43.9578C36.1061 45.7264 35.4777 47.8667 35.2148 49.8222C34.9785 51.5794 34.9789 53.7264 34.9792 56.0093V56.5323C34.9789 58.8152 34.9785 60.9622 35.2148 62.7194C35.3993 64.0916 35.7637 65.5548 36.5758 66.9167C36.5505 66.9167 36.5253 66.9167 36.5 66.9167C12.1667 66.9167 12.1667 60.7886 12.1667 53.2292C12.1667 45.6698 23.0611 39.5417 36.5 39.5417C40.5338 39.5417 44.3384 40.0938 47.6879 41.071Z" fill="#444444"/>
<path fill-rule="evenodd" clip-rule="evenodd" d="M41.1007 65.3576C42.6598 66.9167 45.169 66.9167 50.1875 66.9167C55.206 66.9167 57.7152 66.9167 59.2743 65.3576C60.8333 63.7986 60.8333 61.2893 60.8333 56.2708C60.8333 51.2523 60.8333 48.7431 59.2743 47.184C57.7152 45.625 55.206 45.625 50.1875 45.625C45.169 45.625 42.6598 45.625 41.1007 47.184C39.5417 48.7431 39.5417 51.2523 39.5417 56.2708C39.5417 61.2893 39.5417 63.7986 41.1007 65.3576ZM47.2267 60.7618C45.0913 59.2327 42.5833 57.4368 42.5833 54.3235C42.5833 50.8866 46.7658 48.4493 50.1875 51.7534C53.6093 48.4493 57.7917 50.8866 57.7917 54.3235C57.7917 57.4368 55.2837 59.2327 53.1484 60.7618C52.9264 60.9207 52.7085 61.0767 52.4979 61.2311C51.7083 61.8095 50.9479 62.3542 50.1875 62.3542C49.4271 62.3542 48.6667 61.8095 47.8772 61.2311C47.6665 61.0767 47.4486 60.9207 47.2267 60.7618Z" fill="#444444"/>
</svg>
