<svg width="61" height="61" viewBox="0 0 61 61" fill="none" xmlns="http://www.w3.org/2000/svg">
<path d="M21.7575 10.3671C25.6103 3.45571 27.5366 0 30.4167 0C33.2967 0 35.2231 3.45571 39.0758 10.3671L40.0725 12.1552C41.1674 14.1192 41.7148 15.1012 42.5683 15.7492C43.4218 16.3971 44.4848 16.6376 46.6108 17.1186L48.5464 17.5566C56.0279 19.2494 59.7687 20.0957 60.6587 22.9577C61.5487 25.8196 58.9985 28.8018 53.898 34.766L52.5785 36.309C51.1291 38.0039 50.4044 38.8513 50.0784 39.8997C49.7524 40.9481 49.862 42.0788 50.0811 44.3401L50.2806 46.3988C51.0517 54.3564 51.4373 58.3352 49.1073 60.104C46.7773 61.8728 43.2748 60.2601 36.2698 57.0348L34.4576 56.2004C32.467 55.2838 31.4717 54.8256 30.4167 54.8256C29.3617 54.8256 28.3664 55.2838 26.3758 56.2004L24.5635 57.0348C17.5586 60.2601 14.0561 61.8728 11.7261 60.104C9.39608 58.3352 9.78163 54.3564 10.5527 46.3988L10.7522 44.3401C10.9714 42.0788 11.0809 40.9481 10.7549 39.8997C10.4289 38.8513 9.70421 38.0039 8.25484 36.3091L6.9353 34.766C1.83488 28.8018 -0.715325 25.8196 0.174656 22.9577C1.06464 20.0957 4.8054 19.2494 12.2869 17.5566L14.2225 17.1186C16.3485 16.6376 17.4115 16.3971 18.265 15.7492C19.1186 15.1012 19.666 14.1192 20.7608 12.1552L21.7575 10.3671Z" fill="#444444"/>
</svg>
