<svg width="73" height="73" viewBox="0 0 73 73" fill="none" xmlns="http://www.w3.org/2000/svg">
<path fill-rule="evenodd" clip-rule="evenodd" d="M36.5 48.6667C48.2591 48.6667 57.7917 39.1341 57.7917 27.375C57.7917 15.6159 48.2591 6.08334 36.5 6.08334C24.7409 6.08334 15.2083 15.6159 15.2083 27.375C15.2083 39.1341 24.7409 48.6667 36.5 48.6667ZM36.5 18.25C35.636 18.25 35.0581 19.2867 33.9023 21.3601L33.6032 21.8966C33.2748 22.4858 33.1106 22.7804 32.8545 22.9748C32.5985 23.1691 32.2796 23.2413 31.6418 23.3856L31.0611 23.517C28.8166 24.0248 27.6944 24.2787 27.4274 25.1373C27.1604 25.9959 27.9255 26.8905 29.4556 28.6798L29.8515 29.1427C30.2863 29.6512 30.5037 29.9054 30.6015 30.2199C30.6993 30.5344 30.6664 30.8736 30.6007 31.552L30.5408 32.1696C30.3095 34.5569 30.1938 35.7506 30.8928 36.2812C31.5918 36.8118 32.6426 36.328 34.7441 35.3604L35.2877 35.1101C35.8849 34.8352 36.1835 34.6977 36.5 34.6977C36.8165 34.6977 37.1151 34.8352 37.7123 35.1101L38.256 35.3604C40.3574 36.328 41.4082 36.8118 42.1072 36.2812C42.8062 35.7506 42.6905 34.5569 42.4592 32.1696L42.3993 31.552C42.3336 30.8737 42.3007 30.5344 42.3985 30.2199C42.4963 29.9054 42.7137 29.6512 43.1485 29.1427L43.5444 28.6798C45.0745 26.8905 45.8396 25.9959 45.5726 25.1373C45.3056 24.2787 44.1834 24.0248 41.9389 23.517L41.3583 23.3856C40.7205 23.2413 40.4016 23.1691 40.1455 22.9748C39.8894 22.7804 39.7252 22.4858 39.3968 21.8966L39.0977 21.3601C37.9419 19.2867 37.364 18.25 36.5 18.25Z" fill="#444444"/>
<path d="M21.5746 48.4884L20.4225 52.6907C18.5113 59.6617 17.5557 63.1472 18.8309 65.0554C19.2778 65.7241 19.8773 66.2608 20.573 66.615C22.558 67.6258 25.623 66.0287 31.7529 62.8346C33.7925 61.7719 34.8124 61.2405 35.896 61.125C36.2977 61.0822 36.7023 61.0822 37.104 61.125C38.1876 61.2405 39.2074 61.7718 41.247 62.8346C47.377 66.0287 50.442 67.6258 52.427 66.615C53.1227 66.2608 53.7222 65.7241 54.1691 65.0554C55.4443 63.1472 54.4887 59.6617 52.5775 52.6907L51.4254 48.4884C47.2092 51.4744 42.0595 53.2291 36.5 53.2291C30.9405 53.2291 25.7908 51.4744 21.5746 48.4884Z" fill="#444444"/>
</svg>
