<svg width="73" height="73" viewBox="0 0 73 73" fill="none" xmlns="http://www.w3.org/2000/svg">
<path d="M21.2917 14.6893C21.2917 19.3971 26.5414 24.3565 30.8721 27.6467C33.3028 29.4933 34.5181 30.4167 36.5 30.4167C38.4819 30.4167 39.6972 29.4933 42.1279 27.6467C46.4586 24.3565 51.7083 19.3972 51.7083 14.6893C51.7083 6.2025 43.3435 3.03394 36.5 9.58991C29.6565 3.03394 21.2917 6.2025 21.2917 14.6893Z" fill="#444444"/>
<path d="M19.0406 65.0563H18.25C15.3823 65.0563 13.9484 65.0563 13.0575 64.1655C12.1667 63.2746 12.1667 61.8407 12.1667 58.973V55.5909C12.1667 54.0137 12.1667 53.2251 12.5717 52.5209C12.9768 51.8167 13.5879 51.4613 14.8102 50.7504C22.8568 46.0704 34.2843 43.4359 41.9113 47.985C42.4238 48.2907 42.8846 48.6596 43.2785 49.102C44.976 51.0087 44.8523 53.8865 42.8959 55.5941C42.4827 55.9546 42.0424 56.2281 41.5989 56.3231C41.9633 56.2809 42.3126 56.2325 42.6459 56.1793C45.4181 55.7371 47.7451 54.2558 49.8755 52.6465L55.3724 48.4941C57.3102 47.0302 60.1864 47.0299 62.1246 48.4934C63.8695 49.8109 64.403 51.9803 63.2999 53.7485C62.0134 55.8106 60.201 58.4486 58.4606 60.0605C56.7178 61.6747 54.123 63.1158 52.0048 64.1382C49.6584 65.2708 47.0661 65.9234 44.4295 66.3502C39.0819 67.2158 33.5087 67.0837 28.2155 65.9932C25.2231 65.3767 22.1153 65.0563 19.0406 65.0563Z" fill="#444444"/>
</svg>
