<svg width="46" height="61" viewBox="0 0 46 61" fill="none" xmlns="http://www.w3.org/2000/svg">
<path fill-rule="evenodd" clip-rule="evenodd" d="M22.8125 0C10.2135 0 0 10.451 0 23.343C0 30.2548 2.93833 36.4671 7.59987 40.7382C9.15359 42.1618 10.3046 43.2165 11.1204 43.9818C11.5282 44.3644 11.8401 44.6632 12.0702 44.8927C12.185 45.007 12.2727 45.0975 12.3381 45.1677C12.3704 45.2024 12.3948 45.2294 12.4124 45.2496C12.4297 45.2694 12.438 45.2796 12.438 45.2796C13.1574 46.188 13.3131 46.4224 13.4058 46.6347C13.4985 46.847 13.5653 47.1221 13.7468 48.2765C13.8184 48.7322 13.8258 49.5128 13.8258 51.6376L13.8258 51.7288C13.8257 52.9731 13.8257 54.0465 13.9037 54.9273C13.9862 55.8587 14.1688 56.7809 14.6593 57.6502C15.2054 58.618 15.9908 59.4217 16.9366 59.9804C17.786 60.4823 18.6874 60.6692 19.5976 60.7536C20.4584 60.8334 21.5073 60.8334 22.7233 60.8333H22.9017C24.1177 60.8334 25.1666 60.8334 26.0274 60.7536C26.9376 60.6692 27.839 60.4823 28.6884 59.9804C29.6342 59.4217 30.4196 58.618 30.9657 57.6502C31.4562 56.7809 31.6388 55.8587 31.7213 54.9273C31.7993 54.0465 31.7993 52.9731 31.7992 51.7287V51.6376C31.7992 49.5128 31.8066 48.7322 31.8782 48.2764C32.0597 47.1221 32.1265 46.847 32.2192 46.6347C32.3119 46.4224 32.4676 46.188 33.187 45.2796C33.187 45.2796 33.1945 45.2703 33.2126 45.2496C33.2302 45.2294 33.2546 45.2024 33.2869 45.1677C33.3523 45.0975 33.44 45.007 33.5548 44.8927C33.7849 44.6632 34.0968 44.3644 34.5046 43.9818C35.3204 43.2165 36.4714 42.1618 38.0251 40.7382C42.6867 36.4671 45.625 30.2548 45.625 23.343C45.625 10.451 35.4115 0 22.8125 0ZM27.6337 53.7597H17.9913C18.0003 54.0546 18.0139 54.3123 18.0345 54.5442C18.0909 55.1812 18.1861 55.4125 18.2513 55.5281C18.4333 55.8507 18.6951 56.1186 19.0104 56.3048C19.1234 56.3716 19.3494 56.469 19.972 56.5267C20.6231 56.5871 21.4822 56.5891 22.8125 56.5891C24.1428 56.5891 25.0019 56.5871 25.653 56.5267C26.2756 56.469 26.5016 56.3716 26.6146 56.3048C26.9299 56.1186 27.1917 55.8507 27.3737 55.5281C27.4389 55.4125 27.5341 55.1812 27.5905 54.5442C27.6111 54.3123 27.6247 54.0546 27.6337 53.7597ZM26.1901 18.7867C27.1222 19.468 27.338 20.7933 26.6723 21.747L23.0893 26.8798H27.3549C28.1317 26.8798 28.8434 27.3241 29.1989 28.0309C29.5544 28.7377 29.494 29.5885 29.0424 30.2354L23.1171 38.7238C22.4514 39.6774 21.1562 39.8983 20.2241 39.2171C19.2921 38.5359 19.0762 37.2106 19.742 36.2569L23.325 31.124H19.0594C18.2826 31.124 17.5709 30.6798 17.2154 29.973C16.8599 29.2662 16.9203 28.4153 17.3718 27.7685L23.2972 19.2801C23.9629 18.3264 25.2581 18.1055 26.1901 18.7867Z" fill="#444444"/>
</svg>
